<?xml version="1.0" encoding="utf-8"?>
<!-- Generator: Adobe Illustrator 16.0.0, SVG Export Plug-In . SVG Version: 6.00 Build 0)  -->
<!DOCTYPE svg PUBLIC "-//W3C//DTD SVG 1.1//EN" "http://www.w3.org/Graphics/SVG/1.1/DTD/svg11.dtd">
<svg version="1.1" id="Layer_1" xmlns="http://www.w3.org/2000/svg" xmlns:xlink="http://www.w3.org/1999/xlink" x="0px" y="0px"
	 width="234px" height="267px" viewBox="0 0 234 267" enable-background="new 0 0 234 267" xml:space="preserve">
<g>
	<path fill="#dcdace" d="M16.854,102.489c-0.875-14.915,1.863-27.258,5.064-39.481c0.818-3.119,2.846-6.002,4.665-8.765
		C34.506,42.207,43.871,31.234,55.59,22.96C66.432,15.304,79.038,11.342,92.137,8.2c10.902-2.616,21.51-1.618,32.181-1.37
		c10.365,0.24,20.994,0.675,30.781,4.925c11.935,5.182,21.967,13.105,30.137,23.117c4.05,4.961,4.41,11.765,6.42,17.722
		c2.076,6.16,5.188,11.489,9.554,16.162c7.365,7.879,9.606,17.203,7.955,27.647c-0.565,3.573-0.201,7.216-1.935,10.718
		c-1.147,2.32,0.44,4.996,2.011,6.889c5.293,6.38,8.678,14.295,15.376,19.512c7.318,5.701,6.082,17.479-5.031,20.939
		c-5.339,1.662-7.209,5.479-5.626,10.711c0.47,1.553,1.202,3.025,1.647,4.582c0.263,0.918,0.656,2.328,0.211,2.837
		c-5.264,6.031-3.571,15.384-10.213,20.849c-2.393,1.969-2.414,5.521-1.859,8.44c3.304,17.39-2.324,18.644-16.299,24.574
		c-6.539,2.774-13.758,3.56-20.896,4.537c-10.885,1.491-21.192,5.377-30.555,11.252c-4.619,2.897-7.463,7.434-9.581,12.463
		c-2.139,5.074-3.452,5.418-8.279,2.481c-10.221-6.211-20.058-13.078-30.723-18.532C63.71,226.53,39.388,215.977,13.14,210.587
		c-4.43-0.91-6.566-2.728-6.068-7.769c0.986-9.965,3.523-19.625,5.101-29.426c2.505-15.561,2.611-31.469,2.552-47.25
		C14.691,117.444,18.533,109.133,16.854,102.489z"/>
</g>
</svg>
